<svg width="149" height="72" fill="none" xmlns="http://www.w3.org/2000/svg"><path d="M144.16 31.1c-1.51 1.1-3.12 1.88-4.73 2.77 0-1.68-.1-3.46-.6-5.04.1-.3.1-.69.1-.98.4-2.96.7-7.01-2.02-9.08-.3-.3-1.2 0-1.91.3-.2-.2-.3-.3-.5-.4-.1-.2-.2-.5-.2-.7 0-.1-.2-.2-.4-.2.3-.39.3-.78-.41-1.08-.4-.2-.8-.3-1.1-.4-.1-.09-.1-.09-.2-.09-.91-.3-1.92-.5-2.93-.7.1-.29.4-.78.6-.98.1-.2.3-.3.4-.4l.2-.2s.11 0 .11-.09l.1-.1c.4-.3.8-.89.2-1.18-.6-.3-1.5-.1-2.01.2-.9.69-1.61 1.38-2.12 2.36-2-.2-4.02-.2-6.14-.1.1-.1.1-.2.1-.3.2-.58-.9-.48-1.2-.48l-4.73.59c1.4-3.75 3.12-8.5 1-12.14C114.57.6 111.85.1 109.63 0c-2.41-.1-4.93.5-7.05 1.58-4.83 2.57-7.14 7.6-8.25 12.93-.5-.69-2.31-.4-2.62.5-.1.3-.2.59-.3.98-.2.2-.3.4-.3.6v.2h-.2c0-.1 0-.2.1-.3.1-.1.2-.2.3-.4.6-2.27 1.2-4.54 1.91-6.71.3-.8-2.51-.4-2.81.4-.4 1.18-.81 2.36-1.11 3.55-.2.1-.4.2-.4.3v.1c-.1-.1-.3-.2-.5-.2v-1c0-.39-2.83 0-2.83.8v1.58c-.2.1-.3.2-.5.3l-.2.19c-.1.1-.1.2-.1.2v.1l-.1.1c-.1.1-.2.3 0 .49.2.2.5.2.7.2h.1v.49h-.7l-.4-.1c0-.4-.7-.5-1.41-.3v-.1c-.1-.59-.2-1.18-.2-1.77.2-.1.5-.2.7-.3.2-.1.3-.2.3-.4v-.19c0-.2-.4-.2-.5-.2h-.6c-.1-1.28-.1-2.56-.1-3.85 0-.79-2.83-.3-2.83.8 0 1.77 0 3.55.2 5.22h-.3v-1.48c0-.98-1.3-1.18-2.11-.79.3-.3.5-.59.4-.98-.4-1.38-.8-2.77-1-4.25-.2-1.38-3.02-.69-2.82.8.2 1.47.6 2.85 1 4.24.2.79 1.31.89 2.12.5-.2.19-.4.48-.4.78v.6c-.3-.3-.5-.3-.91-.3-1.1 0-1.71.88-1.41 1.48-.2 0-.3-.1-.5-.1a11.8 11.8 0 01-.7-3.75c0-.9-1.32-.99-2.12-.7v-.2c-.4-.78-.6-1.67-.8-2.46-.3-1.28-3.23-.6-2.83.8.2.58.3 1.27.5 1.87h-.1c-.3.1-.6.2-.9.4-.8.09-1.81.58-1.81 1.18.1.49.1.98.2 1.38-.4.1-1 .1-1.51.2-.3-.8-.5-1.58-.6-2.37-.1-.9-1.61-.9-2.32-.3a24.4 24.4 0 00-3.12-5.73c-2.72-3.35-7.25-4.54-11.37-3.65a9.44 9.44 0 00-5.04 2.57c-1.2 1.38-1.4 3.06-1.2 4.74.2 1.48.6 3.95 1.6 5.92-.4 0-.7 0-.9.1-.3.1-.6.2-.8.4-1.92 0-3.93 0-5.84-.1-4.23-.2-8.36-.9-12.59-.7-.9 0-1.5.7-1.5 1.29-1.01.49-1.72 1.28-2.12 2.27-1.71-1.09-3.52-2.27-5.34-3.16-.7-.4-3.32.69-2.31 1.18 1.81.9 3.62 2.08 5.33 3.16.5.3 1.31.1 1.81-.1 0 0 .1 0 .2-.1a9.5 9.5 0 00.2 4.45c0 .1.1.2.2.3v1.18c-.4.2-.7.5-.8.79-.2 1.38-.3 2.76-.3 4.14-.3.2-.5.5-.5.8-.2 3.25 0 6.6.5 9.86.2 2.67.7 5.24 1.21 7.9.1.4.1.8.2 1.28a8.04 8.04 0 00-.2 3.46c-.9.2-1.71.89-1.2 1.58a8.03 8.03 0 002.6 2.56c-.6-.1-1.4.1-1.9.6-.8.79-1.71 1.48-2.52 2.27-.4.4-.3.89.3 1.08.7.2 1.51-.1 2.02-.49.8-.79 1.7-1.48 2.51-2.27.2-.2.3-.5.2-.7 3.22 1.69 7.25 1.3 11.18.9-.9 1.58-1.51 3.25-2.22 4.93-.3.7 2.52.4 2.82-.4.6-1.67 1.2-3.25 2.11-4.83 3.73.1 7.55.1 11.28.1.1.2.4.3.7.3 3.33.3 6.55-.1 9.77-.7 4.83-.2 9.66-.49 14.5-.79 7.54-.2 15.2-.3 22.74-.3l.3.3c.3.3.61.3 1.01.3h.2c.7 0 1.41.1 2.12.1.2 0 .3.1.6 0 .8.1 1.61.1 2.32.2.2.2.5.3.8.4 3.83.29 7.65.49 11.48.68.1.2.5.3.8.3 7.15.1 15.4 2.76 21.75-1.68.5-.4.3-.89-.3-.99h-.3a49.86 49.86 0 002.91-8.49c.4-.2.6-.49.6-.88 0-1.19.2-2.37.4-3.56.21-.89.31-1.77.41-2.66.4-2.17.8-4.35 1-6.42a43.92 43.92 0 006.65-3.75c1.61-1.18-.8-1.88-1.81-1.18zM88.39 16.3l-.1.1c.1-.3.1-.6.2-.9h.1c0 .2-.1.5-.2.8z" fill="#000"/><path d="M63.73 12.55c.1.2.6.2.8.2.4 0 .81-.1 1.11-.2.4-.2 1.1-.6.8-1.09-.4-.6-.6-1.18-1-1.78-.1-.2-.6-.2-.8-.2-.4 0-.81.1-1.11.2-.4.2-1.11.6-.8 1.09.3.6.6 1.28 1 1.78zM20.85 10.87c.2.6 1.1.6 1.6.5.51-.1 1.42-.6 1.21-1.3-.2-.58-.4-1.27-.9-1.77s-1.31-.4-1.91-.2c-.4.2-1.21.8-.7 1.29.4.6.5.89.7 1.48zM30.91 13.83c.8 0 3.12-1.28 1.21-1.28-.9 0-3.12 1.28-1.2 1.28zM123.42 12.25c.3.1.7 0 1.11-.1.3-.1.7-.2.9-.5.4-.39.71-.68 1.01-1.18.1-.2.2-.4 0-.59-.2-.2-.5-.2-.8-.3-.4 0-.8.1-1.11.2-.3.1-.6.3-.8.6-.1.2-.2.39-.4.49l-.2.2c-.21.2-.31.4-.31.59.1.4.3.5.6.6zM136.81 17.58c.6-.1 1.41-.2 1.91-.69 1.31-1.09 2.62-2.17 3.63-3.55.3-.4-1-.2-1.11-.2-.5.1-1.3.3-1.71.7-.9 1.27-2.22 2.26-3.42 3.35-.5.4.4.4.7.4zM147.68 44.33h-4.93c-.6 0-1.51.5-1.61 1.09-.1.69.8.89 1.3.89h4.94c.6 0 1.51-.5 1.61-1.09.1-.69-.7-.89-1.3-.89zM57.39 60.13c-.5.1-1.41.3-1.61.79-.5 1.28-1.01 2.56-1.41 3.85-.2.69 2.61.3 2.82-.5.4-1.28.8-2.56 1.4-3.85.2-.5-1-.3-1.2-.3zM62.02 62.7c-.3 0-.7.1-1 .2-.31.09-.71.19-1.02.39-.1.1-.3.2-.3.4v.29c0 .1-.1.2-.1.3-.1.1-.1.19 0 .29.2.1.5.1.7.1.4 0 .71-.1 1.11-.3.2-.1.6-.2.8-.4.11-.2.21-.29.31-.49V63c0-.3-.4-.3-.5-.3zM117.48 66.35c-.4-.7-3.02.3-2.81.79.8 1.57 1.9 3.06 2.91 4.63.4.7 3.02-.39 2.82-.78-1-1.58-2.11-3.06-2.92-4.64zM121.51 63.98c-.3-.6-1.1-.6-1.61-.4-.4.1-1.51.6-1.2 1.19.4.79.8 1.58 1.2 2.27.3.59 1.1.59 1.61.4.4-.1 1.51-.6 1.2-1.2-.4-.68-.8-1.47-1.2-2.26zM5.75 42.65c-1.51.4-3.02.6-4.53 1-.5.09-1.31.58-1.21 1.27.2.7 1.1.7 1.71.6 1.51-.4 3.02-.6 4.53-.99.5-.1 1.3-.7 1.2-1.28-.3-.7-1.2-.7-1.7-.6z" fill="#000"/></svg>